<svg width="25" height="25" viewBox="0 0 25 25" fill="none" xmlns="http://www.w3.org/2000/svg">
<path d="M9.16866 15.9399V8.07624C9.16866 7.2076 9.87308 6.50317 10.7417 6.50317C11.6104 6.50317 12.3148 7.2076 12.3148 8.07624V11.2215L17.4912 12.3771C18.703 12.6191 19.576 13.684 19.576 14.92V18.1128C19.576 18.7524 19.4273 19.3825 19.1412 19.9547C18.4437 21.3497 17.0176 22.2313 15.4575 22.2313H12.97C10.9889 22.2313 9.13409 21.2615 8.00269 19.6357L7.04501 18.2597C6.59816 17.78 6.3501 17.1491 6.3501 16.493V13.856M5.42432 8.08485C5.42432 5.14887 7.80439 2.7688 10.7404 2.7688C13.6763 2.7688 16.0564 5.14887 16.0564 8.08485" stroke="black" stroke-width="1.5" stroke-miterlimit="10" stroke-linecap="round" stroke-linejoin="round"/>
</svg>


