<svg width="24" height="24" viewBox="0 0 24 24" fill="none" xmlns="http://www.w3.org/2000/svg">
<path d="M9.16817 15.9398V8.0762C9.16817 7.20755 9.8726 6.50313 10.7412 6.50313C11.6099 6.50313 12.3143 7.20755 12.3143 8.0762V11.2215L17.4908 12.3771C18.7025 12.6191 19.5755 13.6839 19.5755 14.9199V18.1127C19.5755 18.7523 19.4268 19.3824 19.1407 19.9546C18.4432 21.3496 17.0171 22.2312 15.457 22.2312H12.9695C10.9884 22.2312 9.1336 21.2615 8.0022 19.6357L7.04453 18.2597C6.59767 17.78 6.34961 17.149 6.34961 16.493V13.8559M5.42383 8.0848C5.42383 5.14883 7.8039 2.76875 10.7399 2.76875C13.6758 2.76875 16.0559 5.14883 16.0559 8.0848" stroke="black" stroke-width="1.5" stroke-miterlimit="10" stroke-linecap="round" stroke-linejoin="round"/>
</svg>